<svg width="32" height="40" viewBox="0 0 32 40" fill="none" xmlns="http://www.w3.org/2000/svg">
<path d="M16 22C17.9333 22 19.5833 21.3167 20.95 19.95C22.3167 18.5833 23 16.9333 23 15C23 13.0667 22.3167 11.4167 20.95 10.05C19.5833 8.68333 17.9333 8 16 8C14.0667 8 12.4167 8.68333 11.05 10.05C9.68333 11.4167 9 13.0667 9 15C9 16.9333 9.68333 18.5833 11.05 19.95C12.4167 21.3167 14.0667 22 16 22ZM16 40C11.1333 38.7667 7.25 36.1 4.35 32C1.45 27.9 0 23.3 0 18.2V6L16 0L32 6V18.2C32 23.3 30.55 27.9 27.65 32C24.75 36.1 20.8667 38.7667 16 40ZM16 35.8C17.9667 35.1667 19.7083 34.175 21.225 32.825C22.7417 31.475 24.0667 29.95 25.2 28.25C23.7667 27.5167 22.275 26.9583 20.725 26.575C19.175 26.1917 17.6 26 16 26C14.4 26 12.825 26.1917 11.275 26.575C9.725 26.9583 8.23333 27.5167 6.8 28.25C7.93333 29.95 9.25833 31.475 10.775 32.825C12.2917 34.175 14.0333 35.1667 16 35.8Z" fill="#AF101A"/>
</svg>
